<svg width="65" height="65" viewBox="0 0 65 65" fill="none" xmlns="http://www.w3.org/2000/svg">
<path d="M46.7188 50.7813C44.639 50.783 42.5843 50.3276 40.7001 49.4473C38.8158 48.5669 37.1481 47.2832 35.815 45.6869C37.626 49.7949 39.7757 53.7451 42.2419 57.4966C43.1803 58.9184 42.1606 60.9375 40.4625 60.9375H24.5375C22.8353 60.9375 21.8156 58.9184 22.7581 57.4966C25.2243 53.7451 27.374 49.7949 29.185 45.6869C27.6341 47.5404 25.6363 48.968 23.3803 49.8349C21.1244 50.7017 18.6847 50.9793 16.2916 50.6413C13.8986 50.3033 11.6312 49.3609 9.70361 47.9031C7.77599 46.4453 6.25175 44.5203 5.27485 42.3097C4.29794 40.0992 3.90061 37.6761 4.12037 35.2693C4.34013 32.8626 5.16974 30.5515 6.53084 28.5545C7.89194 26.5574 9.73961 24.9402 11.8994 23.8557C14.0591 22.7711 16.4597 22.255 18.8744 22.3559C18.2414 20.2337 18.1129 17.9929 18.4992 15.8121C18.8855 13.6314 19.7758 11.5711 21.0992 9.79531C22.4226 8.01955 24.1426 6.57749 26.1219 5.58406C28.1013 4.59063 30.2853 4.0733 32.5 4.0733C34.7147 4.0733 36.8987 4.59063 38.8781 5.58406C40.8574 6.57749 42.5774 8.01955 43.9008 9.79531C45.2242 11.5711 46.1146 13.6314 46.5008 15.8121C46.8871 17.9929 46.7586 20.2337 46.1256 22.3559C48.0158 22.2776 49.9026 22.5773 51.6755 23.2374C53.4485 23.8975 55.0718 24.9048 56.4505 26.2002C57.8292 27.4956 58.9356 29.0532 59.7047 30.7816C60.4739 32.51 60.8904 34.3745 60.9299 36.2659C60.9693 38.1573 60.6309 40.0375 59.9346 41.7965C59.2382 43.5555 58.1978 45.1578 56.8743 46.5096C55.5508 47.8614 53.9709 48.9355 52.2271 49.669C50.4832 50.4025 48.6106 50.7807 46.7188 50.7813Z" fill="white"/>
</svg>
