<svg width="65" height="65" viewBox="0 0 65 65" fill="none" xmlns="http://www.w3.org/2000/svg">
<path d="M9.95313 30.0625L29.25 4.33472C29.6284 3.83017 30.1191 3.42066 30.6832 3.13861C31.2473 2.85656 31.8693 2.70972 32.5 2.70972C33.1307 2.70972 33.7527 2.85656 34.3168 3.13861C34.8809 3.42066 35.3716 3.83017 35.75 4.33472L55.0469 30.0625C55.5743 30.7657 55.8594 31.621 55.8594 32.5C55.8594 33.379 55.5743 34.2343 55.0469 34.9375L35.75 60.6653C35.3716 61.1699 34.8809 61.5794 34.3168 61.8615C33.7527 62.1435 33.1307 62.2903 32.5 62.2903C31.8693 62.2903 31.2473 62.1435 30.6832 61.8615C30.1191 61.5794 29.6284 61.1699 29.25 60.6653L9.95313 34.9375C9.42572 34.2343 9.14062 33.379 9.14062 32.5C9.14062 31.621 9.42572 30.7657 9.95313 30.0625Z" fill="white"/>
</svg>
