<svg width="65" height="65" viewBox="0 0 65 65" fill="none" xmlns="http://www.w3.org/2000/svg">
<path d="M29.185 45.6869C27.3113 47.9256 24.7939 49.5334 21.9747 50.2917C19.1556 51.05 16.1713 50.9222 13.4273 49.9256C10.6833 48.929 8.31257 47.1119 6.63715 44.7212C4.96172 42.3304 4.0628 39.4819 4.0625 36.5625C4.0625 30.0544 8.69375 25.8659 14.8688 20.28C20.2556 15.405 26.8206 9.46562 32.5 0C38.1794 9.46562 44.7444 15.405 50.1313 20.28C56.3063 25.8659 60.9375 30.0544 60.9375 36.5625C60.9372 39.4819 60.0383 42.3304 58.3629 44.7212C56.6874 47.1119 54.3167 48.929 51.5727 49.9256C48.8287 50.9222 45.8444 51.05 43.0253 50.2917C40.2061 49.5334 37.6887 47.9256 35.815 45.6869C37.626 49.7949 39.7757 53.7451 42.2419 57.4966C43.1803 58.9184 42.1606 60.9375 40.4625 60.9375H24.5375C22.8353 60.9375 21.8156 58.9184 22.7581 57.4966C25.2243 53.7451 27.374 49.7949 29.185 45.6869Z" fill="white"/>
</svg>
