<svg width="65" height="65" viewBox="0 0 65 65" fill="none" xmlns="http://www.w3.org/2000/svg">
<path d="M16.25 4.0625C25.2281 4.0625 32.5 11.1922 32.5 19.9875C32.5 11.1922 39.7719 4.0625 48.75 4.0625C57.7281 4.0625 65 11.1922 65 19.9875C65 33.2434 51.8619 37.9194 34.0925 59.02C33.8969 59.2517 33.653 59.438 33.378 59.5658C33.1029 59.6935 32.8033 59.7597 32.5 59.7597C32.1967 59.7597 31.8971 59.6935 31.622 59.5658C31.347 59.438 31.1031 59.2517 30.9075 59.02C13.1381 37.9194 0 33.2434 0 19.9875C0 11.1922 7.27187 4.0625 16.25 4.0625Z" fill="white"/>
</svg>
